# xmcd
#
# Track frame offsets:
#	150
#	3317
#	6575
#	9842
#	12777
#	16030
#	18650
#	21577
#	24985
#	28110
#	31620
#	34935
#	38380
#	41852
#	45152
#	49020
#	51947
#	55197
#	58335
#	61180
#	64675
#	67515
#	70600
#	73882
#	77372
#	80842
#	84535
#	87830
#	91810
#	94992
#	98117
#	101282
#	104572
#	107610
#	111162
#	114230
#	118157
#	121175
#	124240
#	127557
#	130867
#	134137
#	137730
#	142130
#	146120
#	149442
#	152587
#	155910
#	159417
#	162205
#	165395
#	168835
#	172680
#	176190
#	179537
#	183082
#	187090
#	190710
#	193725
#	197307
#	200470
#	204532
#	207695
#	211857
#	215597
#	218947
#	221880
#	225097
#	228965
#	232652
#	235602
#	239065
#	242210
#	245750
#	249267
#	253322
#	256920
#	260137
#	263230
#	266945
#	270085
#	274032
#	277932
#	281075
#	284942
#	288250
#	292050
#	295360
#	298745
#	302355
#	306312
#
# Disc length: 4127 seconds
#
# Revision: 1
# Processed by: cddbd v1.5.1PL0 Copyright (c) Steve Scherf et al.
# Submitted via: CDex 1.50Beta5
#
DISCID=35101d5b
DTITLE=旺文社 - Dialogue 1200 1
DYEAR=1900
DGENRE=Books
TTITLE0=Treasure Or Junk?
TTITLE1=Narrow Or Small
TTITLE2=The Dream Of Cloning
TTITLE3=Release
TTITLE4=Independence
TTITLE5=A Second Failure
TTITLE6=A Challenge
TTITLE7=Sanpras Again?
TTITLE8=Temples Or Shrines?
TTITLE9=All Men Are Equal.
TTITLE10=Continual Or Continuous
TTITLE11=E-Mail
TTITLE12=Traffic Lights Are Blue.
TTITLE13=Parent Abuse
TTITLE14=Physical Science
TTITLE15=Good Evaluation
TTITLE16=Good Atmosphere
TTITLE17=You Lost Consciousness.
TTITLE18=Symptoms Of A Cold
TTITLE19=A Rapid Decline
TTITLE20=A Big Blast
TTITLE21=The Law Of Gravity
TTITLE22=Crime And Punishment
TTITLE23=Generation Gap
TTITLE24=A Conventional Way
TTITLE25=The Writer And The Title
TTITLE26=Delicious And Nutritious
TTITLE27=Climate Or Wether
TTITLE28=A Beauty Contest
TTITLE29=The Open
TTITLE30=Physical Examination
TTITLE31=Congratulations
TTITLE32=Packed Like Sardines
TTITLE33=Supply And Demand
TTITLE34=Mutual Understanding
TTITLE35=Quality Or Quantity
TTITLE36=A Little Too Aggressive
TTITLE37=A Seasonal Rain Front
TTITLE38=Umbrella
TTITLE39=A Rainbow
TTITLE40=Annual Income
TTITLE41=TV Programs
TTITLE42=Is It Convenient For ...?
TTITLE43=Raising A Child
TTITLE44=Let Us Alone.
TTITLE45=Political Party
TTITLE46=The Joy Of A Trip
TTITLE47=Diet
TTITLE48=I Would Appreciate It If
TTITLE49=Palm Reading
TTITLE50=Share
TTITLE51=Thanksgiving Day
TTITLE52=Cops Are So Cool.
TTITLE53=Application Form
TTITLE54=Blood Donation
TTITLE55=TV Dinner
TTITLE56=Getting A Nationality
TTITLE57=Japanese Way
TTITLE58=Sensible Or Sensitive?
TTITLE59=Mother Teresa
TTITLE60=Courage And Justice
TTITLE61=Identification
TTITLE62=Population Explosion
TTITLE63=Restructuring
TTITLE64=The People Involved
TTITLE65=Fascinationg Play
TTITLE66=Aging?
TTITLE67=Intensice Couese
TTITLE68=Identity
TTITLE69=Dad's Job
TTITLE70=Settling Disputes
TTITLE71=Demonstration
TTITLE72=Good Calculator
TTITLE73=ADJustment
TTITLE74=Gray Power
TTITLE75=Deposit
TTITLE76=Everybody Is The Same.
TTITLE77=Dismissal
TTITLE78=Pride
TTITLE79=Dentist
TTITLE80=Afternoon Tea
TTITLE81=Ultraviolet Rays
TTITLE82=Greenhouse Effect
TTITLE83=Meishi Or Name Card
TTITLE84=The Target Is Yourself.
TTITLE85=Food
TTITLE86=Some Distinctions
TTITLE87=The Strange Pebbles
TTITLE88=Diplomatic Policy
TTITLE89=Compertitive Generation
TTITLE90=Bilingual
EXTD=
EXTT0=
EXTT1=
EXTT2=
EXTT3=
EXTT4=
EXTT5=
EXTT6=
EXTT7=
EXTT8=
EXTT9=
EXTT10=
EXTT11=
EXTT12=
EXTT13=
EXTT14=
EXTT15=
EXTT16=
EXTT17=
EXTT18=
EXTT19=
EXTT20=
EXTT21=
EXTT22=
EXTT23=
EXTT24=
EXTT25=
EXTT26=
EXTT27=
EXTT28=
EXTT29=
EXTT30=
EXTT31=
EXTT32=
EXTT33=
EXTT34=
EXTT35=
EXTT36=
EXTT37=
EXTT38=
EXTT39=
EXTT40=
EXTT41=
EXTT42=
EXTT43=
EXTT44=
EXTT45=
EXTT46=
EXTT47=
EXTT48=
EXTT49=
EXTT50=
EXTT51=
EXTT52=
EXTT53=
EXTT54=
EXTT55=
EXTT56=
EXTT57=
EXTT58=
EXTT59=
EXTT60=
EXTT61=
EXTT62=
EXTT63=
EXTT64=
EXTT65=
EXTT66=
EXTT67=
EXTT68=
EXTT69=
EXTT70=
EXTT71=
EXTT72=
EXTT73=
EXTT74=
EXTT75=
EXTT76=
EXTT77=
EXTT78=
EXTT79=
EXTT80=
EXTT81=
EXTT82=
EXTT83=
EXTT84=
EXTT85=
EXTT86=
EXTT87=
EXTT88=
EXTT89=
EXTT90=
PLAYORDER=
